<mxfile host="app.diagrams.net" agent="Mozilla/5.0 (Windows NT 10.0; Win64; x64) AppleWebKit/537.36 (KHTML, like Gecko) Chrome/131.0.0.0 Safari/537.36" version="26.0.6">
  <diagram name="第 1 页" id="SyAMaVtlt1BhlXAUfKmn">
    <mxGraphModel dx="2074" dy="1132" grid="1" gridSize="10" guides="1" tooltips="1" connect="1" arrows="1" fold="1" page="1" pageScale="1" pageWidth="827" pageHeight="1169" math="0" shadow="0">
      <root>
        <mxCell id="0" />
        <mxCell id="1" parent="0" />
        <mxCell id="1MdLU0vDJq-VRHO7tV_q-1" value="_ZN11__sanitizer10ReportFile5WriteEPKcm" style="rounded=1;whiteSpace=wrap;html=1;" vertex="1" parent="1">
          <mxGeometry x="470" y="510" width="250" height="70" as="geometry" />
        </mxCell>
        <mxCell id="1MdLU0vDJq-VRHO7tV_q-2" value="" style="shape=curlyBracket;whiteSpace=wrap;html=1;rounded=1;labelPosition=left;verticalLabelPosition=middle;align=right;verticalAlign=middle;size=0.5;" vertex="1" parent="1">
          <mxGeometry x="730" y="490" width="20" height="200" as="geometry" />
        </mxCell>
        <mxCell id="1MdLU0vDJq-VRHO7tV_q-3" value="_ZN11__sanitizer14internal_writeEiPKvm" style="rounded=1;whiteSpace=wrap;html=1;" vertex="1" parent="1">
          <mxGeometry x="770" y="460" width="320" height="60" as="geometry" />
        </mxCell>
        <mxCell id="1MdLU0vDJq-VRHO7tV_q-4" value="_ZN11__sanitizer15internal_strlenEPKc" style="rounded=1;whiteSpace=wrap;html=1;" vertex="1" parent="1">
          <mxGeometry x="770" y="530" width="320" height="50" as="geometry" />
        </mxCell>
        <mxCell id="1MdLU0vDJq-VRHO7tV_q-5" value="_ZN11__sanitizer14internal_writeEiPKvm" style="rounded=1;whiteSpace=wrap;html=1;" vertex="1" parent="1">
          <mxGeometry x="765" y="590" width="330" height="50" as="geometry" />
        </mxCell>
        <mxCell id="1MdLU0vDJq-VRHO7tV_q-8" value="" style="edgeStyle=orthogonalEdgeStyle;rounded=0;orthogonalLoop=1;jettySize=auto;html=1;" edge="1" parent="1" source="1MdLU0vDJq-VRHO7tV_q-6" target="1MdLU0vDJq-VRHO7tV_q-7">
          <mxGeometry relative="1" as="geometry" />
        </mxCell>
        <mxCell id="1MdLU0vDJq-VRHO7tV_q-6" value="_ZN11__sanitizer3DieEv" style="rounded=1;whiteSpace=wrap;html=1;" vertex="1" parent="1">
          <mxGeometry x="760" y="660" width="330" height="50" as="geometry" />
        </mxCell>
        <mxCell id="1MdLU0vDJq-VRHO7tV_q-12" value="" style="edgeStyle=orthogonalEdgeStyle;rounded=0;orthogonalLoop=1;jettySize=auto;html=1;" edge="1" parent="1" source="1MdLU0vDJq-VRHO7tV_q-7" target="1MdLU0vDJq-VRHO7tV_q-11">
          <mxGeometry relative="1" as="geometry" />
        </mxCell>
        <mxCell id="1MdLU0vDJq-VRHO7tV_q-7" value="_ZN11__sanitizer14internal__exitEi&lt;div&gt;有一个syscall&lt;/div&gt;" style="rounded=1;whiteSpace=wrap;html=1;" vertex="1" parent="1">
          <mxGeometry x="767" y="760" width="316" height="60" as="geometry" />
        </mxCell>
        <mxCell id="1MdLU0vDJq-VRHO7tV_q-14" value="" style="edgeStyle=orthogonalEdgeStyle;rounded=0;orthogonalLoop=1;jettySize=auto;html=1;" edge="1" parent="1" source="1MdLU0vDJq-VRHO7tV_q-11" target="1MdLU0vDJq-VRHO7tV_q-13">
          <mxGeometry relative="1" as="geometry" />
        </mxCell>
        <mxCell id="1MdLU0vDJq-VRHO7tV_q-11" value="&amp;nbsp;_ZN11__sanitizer3DieEv" style="rounded=1;whiteSpace=wrap;html=1;" vertex="1" parent="1">
          <mxGeometry x="767" y="860" width="316" height="50" as="geometry" />
        </mxCell>
        <mxCell id="1MdLU0vDJq-VRHO7tV_q-13" value="_ZN6__asanL7AsanDieEv" style="rounded=1;whiteSpace=wrap;html=1;" vertex="1" parent="1">
          <mxGeometry x="772" y="950" width="306" height="40" as="geometry" />
        </mxCell>
        <mxCell id="1MdLU0vDJq-VRHO7tV_q-15" value="_ZN11__sanitizer8RawWriteEPKc" style="rounded=1;whiteSpace=wrap;html=1;" vertex="1" parent="1">
          <mxGeometry x="10" y="440" width="400" height="70" as="geometry" />
        </mxCell>
        <mxCell id="1MdLU0vDJq-VRHO7tV_q-16" value="" style="shape=curlyBracket;whiteSpace=wrap;html=1;rounded=1;labelPosition=left;verticalLabelPosition=middle;align=right;verticalAlign=middle;" vertex="1" parent="1">
          <mxGeometry x="430" y="410" width="20" height="120" as="geometry" />
        </mxCell>
        <mxCell id="1MdLU0vDJq-VRHO7tV_q-17" value="_ZN11__sanitizer15internal_strlenEPKc" style="rounded=1;whiteSpace=wrap;html=1;" vertex="1" parent="1">
          <mxGeometry x="470" y="380" width="290" height="60" as="geometry" />
        </mxCell>
      </root>
    </mxGraphModel>
  </diagram>
</mxfile>
